<svg xmlns="http://www.w3.org/2000/svg"  viewBox="0 0 48 48" width="48px" height="48px" baseProfile="basic"><linearGradient id="Q6eqoaQ2H9vVRtvD8JyWLa" x1="-18.069" x2="52.734" y1="-18.069" y2="52.734" gradientUnits="userSpaceOnUse"><stop offset="0" stop-color="#ffe2a6"/><stop offset="1" stop-color="#903a51"/></linearGradient><path fill="url(#Q6eqoaQ2H9vVRtvD8JyWLa)" d="M36,42H12c-3.314,0-6-2.686-6-6V12c0-3.314,2.686-6,6-6h24c3.314,0,6,2.686,6,6v24	C42,39.314,39.314,42,36,42z"/><linearGradient id="Q6eqoaQ2H9vVRtvD8JyWLb" x1="20.167" x2="12.869" y1="23.424" y2="43.188" gradientUnits="userSpaceOnUse"><stop offset="0" stop-color="#faf3df"/><stop offset="1" stop-color="#849eb8"/></linearGradient><circle cx="17" cy="32" r="4" fill="url(#Q6eqoaQ2H9vVRtvD8JyWLb)"/><linearGradient id="Q6eqoaQ2H9vVRtvD8JyWLc" x1="32.167" x2="23.588" y1="20.424" y2="43.659" gradientUnits="userSpaceOnUse"><stop offset="0" stop-color="#faf3df"/><stop offset="1" stop-color="#849eb8"/></linearGradient><circle cx="29" cy="29" r="4" fill="url(#Q6eqoaQ2H9vVRtvD8JyWLc)"/><linearGradient id="Q6eqoaQ2H9vVRtvD8JyWLd" x1="31" x2="18.448" y1="2.564" y2="36.56" gradientUnits="userSpaceOnUse"><stop offset="0" stop-color="#faf3df"/><stop offset="1" stop-color="#849eb8"/></linearGradient><path fill="url(#Q6eqoaQ2H9vVRtvD8JyWLd)" d="M18,21l15-3v-6l-12.588,2.518C19.009,14.798,18,16.029,18,17.459V21z"/><linearGradient id="Q6eqoaQ2H9vVRtvD8JyWLe" x1="23.297" x2="15.637" y1="16.216" y2="36.961" gradientUnits="userSpaceOnUse"><stop offset="0" stop-color="#faf3df"/><stop offset="1" stop-color="#849eb8"/></linearGradient><path fill="url(#Q6eqoaQ2H9vVRtvD8JyWLe)" d="M18,21v7.141c1.722,0.446,3,1.997,3,3.859V20.4L18,21z"/><linearGradient id="Q6eqoaQ2H9vVRtvD8JyWLf" x1="34.474" x2="27.211" y1="15.744" y2="35.417" gradientUnits="userSpaceOnUse"><stop offset="0" stop-color="#faf3df"/><stop offset="1" stop-color="#849eb8"/></linearGradient><path fill="url(#Q6eqoaQ2H9vVRtvD8JyWLf)" d="M30,25.141c1.722,0.446,3,1.997,3,3.859V18l-3,0.6V25.141z"/></svg>